<?xml version="1.0" standalone="no"?>
<!DOCTYPE svg PUBLIC "-//W3C//DTD SVG 20010904//EN"
 "http://www.w3.org/TR/2001/REC-SVG-20010904/DTD/svg10.dtd">
<svg version="1.0" xmlns="http://www.w3.org/2000/svg"
 width="288.000000pt" height="288.000000pt" viewBox="0 0 288.000000 288.000000"
 preserveAspectRatio="xMidYMid meet">
<metadata>
Created by potrace 1.14, written by Peter Selinger 2001-2017
</metadata>
<g transform="translate(0.000000,288.000000) scale(0.100000,-0.100000)"
fill="#000000" stroke="none">
<path d="M378 2828 c-27 -28 -48 -55 -48 -60 0 -11 -27 -75 -41 -98 -22 -36
-29 -66 -34 -138 -2 -42 -12 -109 -21 -148 -14 -62 -15 -91 -6 -210 11 -143
35 -292 52 -325 11 -20 14 -76 6 -124 -2 -16 -5 -33 -5 -37 -1 -4 -18 -8 -38
-10 l-38 -3 -3 -52 c-2 -36 3 -63 16 -90 11 -21 25 -57 31 -81 19 -70 30 -48
24 48 -7 102 9 173 36 168 11 -2 18 -20 23 -62 11 -86 40 -115 52 -51 5 24 2
46 -8 66 -14 28 -14 32 5 52 17 19 21 20 29 7 5 -8 10 -20 10 -27 0 -7 11 -38
25 -69 14 -31 25 -73 25 -92 0 -35 -1 -36 -15 -16 -11 16 -21 20 -42 16 -15
-3 -32 -11 -36 -18 -4 -8 -14 -14 -22 -14 -7 0 -16 -9 -20 -20 -7 -23 2 -104
17 -142 10 -28 14 -30 53 -32 11 -1 21 -10 25 -24 3 -13 10 -23 15 -23 18 0
18 33 -1 86 -17 50 -17 54 2 99 10 25 22 46 25 46 3 0 13 -16 22 -36 20 -41
40 -36 32 9 -3 18 -2 92 3 166 8 121 11 136 31 152 12 10 28 16 36 12 8 -3 17
1 20 9 4 10 24 15 62 16 30 1 64 4 73 7 20 6 36 -10 20 -20 -18 -11 21 -145
44 -145 4 0 6 -6 3 -14 -9 -23 10 -77 33 -93 11 -8 20 -22 20 -31 0 -9 12 -35
25 -57 14 -22 25 -49 25 -60 0 -12 5 -26 11 -32 8 -8 8 -28 1 -70 -11 -65 -8
-75 13 -47 14 18 14 18 15 -6 0 -15 -9 -31 -21 -38 -18 -12 -20 -20 -15 -57 6
-38 4 -45 -19 -63 -14 -11 -25 -26 -25 -33 0 -8 -14 -27 -30 -43 -17 -16 -27
-32 -24 -35 4 -3 9 0 11 7 3 6 13 12 23 12 20 0 34 -48 19 -66 -7 -8 -1 -16
19 -24 24 -11 28 -19 30 -57 1 -23 -3 -43 -8 -43 -10 0 -14 20 -11 52 1 10 -3
18 -9 18 -18 0 -35 -23 -37 -50 -2 -40 -9 -75 -18 -90 -14 -22 -12 -60 3 -60
9 0 10 -5 3 -18 -6 -11 -6 -24 1 -36 9 -16 5 -24 -22 -49 -24 -21 -29 -31 -20
-37 24 -15 0 -30 -40 -24 -37 6 -38 5 -45 -27 -4 -19 -12 -40 -17 -46 -6 -7
-8 -22 -5 -33 7 -29 -14 -25 -58 10 -35 28 -58 56 -91 113 -22 36 -24 -1 -3
-49 21 -51 69 -114 131 -176 21 -21 38 -41 38 -46 0 -11 57 -62 70 -62 5 0 10
-13 10 -30 0 -26 4 -30 26 -30 23 0 25 -3 19 -29 -4 -18 -1 -38 7 -50 13 -21
15 -21 626 -21 579 0 613 1 608 18 -27 94 -2 230 51 272 50 39 168 155 199
195 92 118 147 273 174 493 10 72 24 107 40 97 4 -3 18 3 30 13 20 16 24 33
32 123 18 198 12 173 103 454 37 115 38 118 22 139 -11 14 -26 19 -62 18 -46
0 -47 0 -40 26 3 15 10 50 15 79 4 29 15 62 23 74 14 19 14 26 0 61 -11 28
-14 56 -10 96 5 46 2 66 -14 100 -19 37 -20 51 -12 121 7 61 5 96 -7 154 -9
42 -21 81 -27 89 -6 7 -21 42 -33 78 -12 36 -32 75 -43 88 -11 12 -16 22 -11
22 5 0 -8 16 -29 35 l-38 35 -848 0 -848 0 -11 -25 c-15 -34 -15 -55 1 -55 7
-1 5 -6 -5 -14 -21 -15 -24 -46 -5 -46 7 0 26 -12 43 -27 16 -16 36 -28 43
-28 8 0 17 -10 22 -22 5 -15 5 -23 -2 -23 -14 0 -5 -39 22 -94 10 -22 19 -49
19 -61 0 -27 28 -85 41 -85 5 0 9 -18 9 -40 0 -39 13 -53 24 -27 4 8 5 7 4 -3
-1 -8 2 -23 7 -33 5 -11 2 -24 -8 -35 -8 -9 -17 -26 -21 -37 -3 -11 -17 -32
-31 -47 -14 -15 -25 -29 -25 -32 0 -3 -10 -16 -22 -29 -31 -32 -53 -60 -61
-77 -4 -8 -18 -33 -32 -55 -13 -22 -24 -47 -25 -55 0 -8 -8 -34 -17 -58 -13
-31 -25 -44 -43 -48 -14 -2 -42 -8 -62 -13 -26 -6 -41 -5 -48 4 -26 32 27 232
70 265 52 39 31 180 -29 203 -23 8 -32 21 -42 54 -6 24 -18 43 -25 43 -8 0
-14 10 -15 23 0 12 -2 54 -3 92 -3 69 12 139 38 180 7 11 23 47 35 80 13 33
31 68 42 78 10 10 19 24 19 32 0 12 -21 15 -117 15 l-118 -1 -47 -51z m532
-227 c0 -5 -7 -11 -15 -15 -9 -3 -15 0 -15 9 0 8 7 15 15 15 8 0 15 -4 15 -9z
m1411 -661 c14 -8 19 -21 18 -53 -1 -48 -26 -134 -29 -102 -1 11 -2 23 -2 26
1 4 -8 30 -18 60 -15 39 -17 56 -9 66 14 16 15 16 40 3z m-1147 -64 c-1 -58
-16 -76 -42 -53 -19 18 -42 23 -42 9 0 -11 -49 -62 -60 -62 -5 0 -12 9 -15 20
-11 35 -36 24 -33 -15 2 -41 -4 -49 -30 -41 -11 4 -23 20 -27 39 -7 28 -9 29
-12 10 -3 -13 -8 -23 -13 -23 -11 0 -3 52 16 98 16 39 39 42 49 5 4 -18 9 -23
14 -14 4 6 12 11 17 9 5 -2 20 7 33 19 15 14 32 21 45 18 12 -3 34 3 51 15 17
11 35 18 40 17 6 -2 10 -25 9 -51z m-367 -8 c-3 -8 -6 -5 -6 6 -1 11 2 17 5
13 3 -3 4 -12 1 -19z m1098 -25 c3 -13 7 -34 10 -47 6 -30 -14 -45 -30 -23 -7
10 -17 17 -23 17 -14 0 -26 44 -19 64 9 23 57 14 62 -11z m-309 -290 c-11 -11
-19 6 -11 24 8 17 8 17 12 0 3 -10 2 -21 -1 -24z m-44 -22 c27 -15 44 -53 32
-72 -3 -5 0 -16 6 -24 7 -9 9 -22 5 -32 -4 -10 -7 -32 -6 -48 2 -21 -6 -40
-24 -59 -22 -24 -35 -28 -89 -31 -59 -4 -64 -2 -68 18 -8 39 1 47 53 47 44 0
50 3 64 31 9 17 14 34 11 37 -4 3 -30 6 -59 6 l-52 1 -1 50 c-1 69 19 97 65
94 20 -2 48 -9 63 -18z m-599 -598 c5 -27 -18 -57 -35 -47 -12 7 -10 34 2 34
6 0 10 9 10 20 0 30 17 24 23 -7z m13 -90 c-2 -3 -9 -2 -15 2 -8 4 -7 13 1 28
l13 22 3 -23 c2 -13 1 -26 -2 -29z"/>
<path d="M693 2850 c12 -31 27 -40 27 -16 0 25 -12 46 -25 46 -11 0 -11 -6 -2
-30z"/>
<path d="M690 2164 c0 -8 5 -12 10 -9 6 4 8 11 5 16 -9 14 -15 11 -15 -7z"/>
<path d="M746 514 c-4 -10 -1 -14 6 -12 15 5 23 28 10 28 -5 0 -13 -7 -16 -16z"/>
</g>
</svg>
